<svg width="13" height="17" viewBox="0 0 13 17" fill="none" xmlns="http://www.w3.org/2000/svg">
<path d="M6.28915 7.60526C6.5 7.60526 6.66723 7.53914 6.7981 7.39957L9.77908 4.36559C9.93904 4.20397 10.0117 4.02766 10.0117 3.82197C10.0117 3.62362 9.93177 3.43262 9.77908 3.2857L6.7981 0.222339C6.66723 0.075415 6.5 0.00195312 6.28915 0.00195312C5.89653 0.00195312 5.58389 0.332532 5.58389 0.736572C5.58389 0.934919 5.6566 1.09654 5.7802 1.23611L7.5179 2.95512C7.17617 2.9037 6.82718 2.87431 6.47819 2.87431C2.87919 2.87431 0 5.7834 0 9.42711C0 13.0708 2.90101 16.002 6.5 16.002C10.1063 16.002 13 13.0708 13 9.42711C13 8.98634 12.6946 8.67046 12.2584 8.67046C11.8367 8.67046 11.5531 8.98634 11.5531 9.42711C11.5531 12.2627 9.30649 14.5401 6.5 14.5401C3.70078 14.5401 1.44687 12.2627 1.44687 9.42711C1.44687 6.56945 3.67897 4.30682 6.47819 4.30682C6.95078 4.30682 7.38702 4.34355 7.77237 4.40967L5.78747 6.39314C5.6566 6.52537 5.58389 6.68699 5.58389 6.88533C5.58389 7.28937 5.89653 7.60526 6.28915 7.60526Z" fill="#797979"/>
</svg>
