<svg width="13" height="13" viewBox="0 0 13 13" fill="none" xmlns="http://www.w3.org/2000/svg">
<path d="M5.44287 10.6797C6.45215 10.6797 7.39795 10.375 8.18506 9.85449L10.9653 12.6411C11.1494 12.8188 11.3843 12.9077 11.6382 12.9077C12.165 12.9077 12.5522 12.4951 12.5522 11.9746C12.5522 11.7334 12.4697 11.4985 12.292 11.3208L9.53076 8.54688C10.1021 7.74072 10.4385 6.75049 10.4385 5.68408C10.4385 2.93555 8.19141 0.688477 5.44287 0.688477C2.70068 0.688477 0.447266 2.93555 0.447266 5.68408C0.447266 8.43262 2.69434 10.6797 5.44287 10.6797ZM5.44287 9.34668C3.43066 9.34668 1.78027 7.69629 1.78027 5.68408C1.78027 3.67822 3.43066 2.02148 5.44287 2.02148C7.45508 2.02148 9.10547 3.67822 9.10547 5.68408C9.10547 7.69629 7.45508 9.34668 5.44287 9.34668Z" fill="#797979"/>
</svg>
